<svg xmlns="http://www.w3.org/2000/svg" viewBox="0 0 100 100" role="img" aria-hidden="true">
  <defs>
    <linearGradient id="lg" x1="0%" y1="0%" x2="100%" y2="100%">
      <stop offset="0%" stop-color="#3d8f3d"/>
      <stop offset="100%" stop-color="#2d6a2d"/>
    </linearGradient>
  </defs>
  <rect width="100" height="100" rx="20" fill="url(#lg)"/>
  <path
    fill="#fff"
    d="M48 14c8-1 18 2 24 8 5 5 8 12 7 20-1 6-5 11-6 17-1 8 4 15 3 23-1 6-7 10-13 12-7 2-15 1-22-2-8-4-14-11-16-20-2-10 2-20 1-30 0-6-4-11-2-17 2-6 10-9 17-10z
       M62 38c3 2 5 6 4 10-1 4-5 7-9 6-4-1-6-6-4-10 2-4 6-7 9-6z"
  />
  <g fill="none" stroke="#2d6a2d" stroke-width="1.8" stroke-linecap="round">
    <path d="M50 42v16M44 48h12M42 54c2 4 6 6 8 10M58 54c-2 4-6 6-8 10M46 62c3 2 4 6 3 10M54 62c-3 2-4 6-3 10"/>
  </g>
</svg>
